<mxfile host="app.diagrams.net" modified="2024-03-05T12:52:43.077Z" agent="Mozilla/5.0 (Macintosh; Intel Mac OS X 10_15_7) AppleWebKit/605.1.15 (KHTML, like Gecko) Version/17.1 Safari/605.1.15" etag="wUUt1juq26NZFyPISRnL" version="24.0.1" type="github">
  <diagram name="Page-1" id="wQiRSYRRvw66UvvO1vQl">
    <mxGraphModel dx="777" dy="1179" grid="0" gridSize="10" guides="1" tooltips="1" connect="1" arrows="1" fold="1" page="0" pageScale="1" pageWidth="827" pageHeight="1169" math="0" shadow="0">
      <root>
        <mxCell id="0" />
        <mxCell id="1" parent="0" />
        <mxCell id="LCZvXdwWNyGgl8HGmZK4-94" value="Private subnet" style="points=[[0,0],[0.25,0],[0.5,0],[0.75,0],[1,0],[1,0.25],[1,0.5],[1,0.75],[1,1],[0.75,1],[0.5,1],[0.25,1],[0,1],[0,0.75],[0,0.5],[0,0.25]];outlineConnect=0;gradientColor=none;html=1;whiteSpace=wrap;fontSize=12;fontStyle=0;container=0;pointerEvents=0;collapsible=0;recursiveResize=0;shape=mxgraph.aws4.group;grIcon=mxgraph.aws4.group_security_group;grStroke=0;strokeColor=#00A4A6;fillColor=#E6F6F7;verticalAlign=top;align=left;spacingLeft=30;fontColor=#147EBA;dashed=0;" vertex="1" parent="1">
          <mxGeometry x="749" y="45.5" width="130" height="130" as="geometry" />
        </mxCell>
        <mxCell id="LCZvXdwWNyGgl8HGmZK4-21" value="Region" style="points=[[0,0],[0.25,0],[0.5,0],[0.75,0],[1,0],[1,0.25],[1,0.5],[1,0.75],[1,1],[0.75,1],[0.5,1],[0.25,1],[0,1],[0,0.75],[0,0.5],[0,0.25]];outlineConnect=0;gradientColor=none;html=1;whiteSpace=wrap;fontSize=12;fontStyle=0;container=0;pointerEvents=0;collapsible=0;recursiveResize=0;shape=mxgraph.aws4.group;grIcon=mxgraph.aws4.group_region;strokeColor=#00A4A6;fillColor=none;verticalAlign=top;align=left;spacingLeft=30;fontColor=#147EBA;dashed=1;" vertex="1" parent="1">
          <mxGeometry x="220" y="-286" width="694" height="836" as="geometry" />
        </mxCell>
        <mxCell id="LCZvXdwWNyGgl8HGmZK4-22" value="Availability Zone" style="fillColor=none;strokeColor=#147EBA;dashed=1;verticalAlign=top;fontStyle=0;fontColor=#147EBA;whiteSpace=wrap;html=1;" vertex="1" parent="1">
          <mxGeometry x="326" y="-251" width="156" height="740" as="geometry" />
        </mxCell>
        <mxCell id="LCZvXdwWNyGgl8HGmZK4-23" value="Availability Zone" style="fillColor=none;strokeColor=#147EBA;dashed=1;verticalAlign=top;fontStyle=0;fontColor=#147EBA;whiteSpace=wrap;html=1;" vertex="1" parent="1">
          <mxGeometry x="747" y="-254" width="130" height="742" as="geometry" />
        </mxCell>
        <mxCell id="LCZvXdwWNyGgl8HGmZK4-55" value="" style="edgeStyle=orthogonalEdgeStyle;rounded=0;orthogonalLoop=1;jettySize=auto;html=1;fontSize=12;startSize=8;endSize=8;entryX=0.5;entryY=1;entryDx=0;entryDy=0;entryPerimeter=0;" edge="1" parent="1" source="LCZvXdwWNyGgl8HGmZK4-36" target="LCZvXdwWNyGgl8HGmZK4-37">
          <mxGeometry relative="1" as="geometry">
            <mxPoint x="503" y="199" as="targetPoint" />
          </mxGeometry>
        </mxCell>
        <mxCell id="LCZvXdwWNyGgl8HGmZK4-36" value="" style="sketch=0;points=[[0,0,0],[0.25,0,0],[0.5,0,0],[0.75,0,0],[1,0,0],[0,1,0],[0.25,1,0],[0.5,1,0],[0.75,1,0],[1,1,0],[0,0.25,0],[0,0.5,0],[0,0.75,0],[1,0.25,0],[1,0.5,0],[1,0.75,0]];outlineConnect=0;fontColor=#232F3E;fillColor=#ED7100;strokeColor=#ffffff;dashed=0;verticalLabelPosition=bottom;verticalAlign=top;align=center;html=1;fontSize=12;fontStyle=0;aspect=fixed;shape=mxgraph.aws4.resourceIcon;resIcon=mxgraph.aws4.eks;" vertex="1" parent="1">
          <mxGeometry x="563" y="212.5" width="78" height="78" as="geometry" />
        </mxCell>
        <mxCell id="LCZvXdwWNyGgl8HGmZK4-38" value="" style="sketch=0;points=[[0,0,0],[0.25,0,0],[0.5,0,0],[0.75,0,0],[1,0,0],[0,1,0],[0.25,1,0],[0.5,1,0],[0.75,1,0],[1,1,0],[0,0.25,0],[0,0.5,0],[0,0.75,0],[1,0.25,0],[1,0.5,0],[1,0.75,0]];outlineConnect=0;fontColor=#232F3E;fillColor=#ED7100;strokeColor=#ffffff;dashed=0;verticalLabelPosition=bottom;verticalAlign=top;align=center;html=1;fontSize=12;fontStyle=0;aspect=fixed;shape=mxgraph.aws4.resourceIcon;resIcon=mxgraph.aws4.ec2;" vertex="1" parent="1">
          <mxGeometry x="771" y="81" width="78" height="78" as="geometry" />
        </mxCell>
        <mxCell id="LCZvXdwWNyGgl8HGmZK4-43" value="" style="sketch=0;outlineConnect=0;fontColor=#232F3E;gradientColor=none;fillColor=#C925D1;strokeColor=none;dashed=0;verticalLabelPosition=bottom;verticalAlign=top;align=center;html=1;fontSize=12;fontStyle=0;aspect=fixed;pointerEvents=1;shape=mxgraph.aws4.aurora_instance;" vertex="1" parent="1">
          <mxGeometry x="361" y="334" width="78" height="78" as="geometry" />
        </mxCell>
        <mxCell id="LCZvXdwWNyGgl8HGmZK4-46" value="" style="sketch=0;outlineConnect=0;fontColor=#232F3E;gradientColor=none;fillColor=#C925D1;strokeColor=none;dashed=0;verticalLabelPosition=bottom;verticalAlign=top;align=center;html=1;fontSize=12;fontStyle=0;aspect=fixed;pointerEvents=1;shape=mxgraph.aws4.aurora_instance;" vertex="1" parent="1">
          <mxGeometry x="773" y="338" width="78" height="78" as="geometry" />
        </mxCell>
        <mxCell id="LCZvXdwWNyGgl8HGmZK4-47" value="" style="sketch=0;points=[[0,0,0],[0.25,0,0],[0.5,0,0],[0.75,0,0],[1,0,0],[0,1,0],[0.25,1,0],[0.5,1,0],[0.75,1,0],[1,1,0],[0,0.25,0],[0,0.5,0],[0,0.75,0],[1,0.25,0],[1,0.5,0],[1,0.75,0]];outlineConnect=0;fontColor=#232F3E;fillColor=#8C4FFF;strokeColor=#ffffff;dashed=0;verticalLabelPosition=bottom;verticalAlign=top;align=center;html=1;fontSize=12;fontStyle=0;aspect=fixed;shape=mxgraph.aws4.resourceIcon;resIcon=mxgraph.aws4.elasticsearch_service;" vertex="1" parent="1">
          <mxGeometry x="563" y="303" width="78" height="78" as="geometry" />
        </mxCell>
        <mxCell id="LCZvXdwWNyGgl8HGmZK4-48" value="" style="sketch=0;outlineConnect=0;fontColor=#232F3E;gradientColor=none;fillColor=#8C4FFF;strokeColor=none;dashed=0;verticalLabelPosition=bottom;verticalAlign=top;align=center;html=1;fontSize=12;fontStyle=0;aspect=fixed;pointerEvents=1;shape=mxgraph.aws4.network_load_balancer;" vertex="1" parent="1">
          <mxGeometry x="576" y="-81" width="78" height="78" as="geometry" />
        </mxCell>
        <mxCell id="LCZvXdwWNyGgl8HGmZK4-56" value="" style="edgeStyle=orthogonalEdgeStyle;orthogonalLoop=1;jettySize=auto;html=1;rounded=0;fontSize=12;startSize=8;endSize=8;entryX=0.5;entryY=1;entryDx=0;entryDy=0;entryPerimeter=0;exitX=1;exitY=0.5;exitDx=0;exitDy=0;exitPerimeter=0;" edge="1" parent="1" source="LCZvXdwWNyGgl8HGmZK4-36" target="LCZvXdwWNyGgl8HGmZK4-38">
          <mxGeometry width="120" relative="1" as="geometry">
            <mxPoint x="594" y="175" as="sourcePoint" />
            <mxPoint x="714" y="175" as="targetPoint" />
          </mxGeometry>
        </mxCell>
        <mxCell id="LCZvXdwWNyGgl8HGmZK4-60" value="" style="edgeStyle=orthogonalEdgeStyle;orthogonalLoop=1;jettySize=auto;html=1;rounded=0;fontSize=12;startSize=8;endSize=8;entryX=0.5;entryY=0;entryDx=0;entryDy=0;entryPerimeter=0;" edge="1" parent="1" source="LCZvXdwWNyGgl8HGmZK4-48" target="LCZvXdwWNyGgl8HGmZK4-38">
          <mxGeometry width="120" relative="1" as="geometry">
            <mxPoint x="594" y="175" as="sourcePoint" />
            <mxPoint x="714" y="175" as="targetPoint" />
            <Array as="points">
              <mxPoint x="615" y="32" />
              <mxPoint x="817" y="32" />
              <mxPoint x="817" y="57" />
              <mxPoint x="812" y="57" />
              <mxPoint x="812" y="81" />
            </Array>
          </mxGeometry>
        </mxCell>
        <mxCell id="LCZvXdwWNyGgl8HGmZK4-61" value="" style="edgeStyle=orthogonalEdgeStyle;orthogonalLoop=1;jettySize=auto;html=1;rounded=0;fontSize=12;startSize=8;endSize=8;entryX=0.5;entryY=0;entryDx=0;entryDy=0;entryPerimeter=0;" edge="1" parent="1" target="LCZvXdwWNyGgl8HGmZK4-37">
          <mxGeometry width="120" relative="1" as="geometry">
            <mxPoint x="613" y="-5" as="sourcePoint" />
            <mxPoint x="714" y="175" as="targetPoint" />
            <Array as="points">
              <mxPoint x="613" y="40" />
              <mxPoint x="411" y="40" />
              <mxPoint x="411" y="128" />
            </Array>
          </mxGeometry>
        </mxCell>
        <mxCell id="LCZvXdwWNyGgl8HGmZK4-63" value="Amazon EKS" style="text;strokeColor=none;fillColor=none;html=1;align=center;verticalAlign=middle;whiteSpace=wrap;rounded=0;fontSize=16;" vertex="1" parent="1">
          <mxGeometry x="581" y="137" width="60" height="98" as="geometry" />
        </mxCell>
        <mxCell id="LCZvXdwWNyGgl8HGmZK4-65" value="EKS Worker" style="text;strokeColor=none;fillColor=none;html=1;align=center;verticalAlign=middle;whiteSpace=wrap;rounded=0;fontSize=16;" vertex="1" parent="1">
          <mxGeometry x="817" y="191" width="60" height="38" as="geometry" />
        </mxCell>
        <mxCell id="LCZvXdwWNyGgl8HGmZK4-69" value="" style="orthogonalLoop=1;jettySize=auto;html=1;rounded=0;fontSize=12;startSize=8;endSize=8;edgeStyle=orthogonalEdgeStyle;startArrow=classic;startFill=1;" edge="1" parent="1" source="LCZvXdwWNyGgl8HGmZK4-43" target="LCZvXdwWNyGgl8HGmZK4-46">
          <mxGeometry width="120" relative="1" as="geometry">
            <mxPoint x="390" y="346" as="sourcePoint" />
            <mxPoint x="703.0008872710728" y="589.1928512114663" as="targetPoint" />
            <Array as="points">
              <mxPoint x="400" y="444" />
              <mxPoint x="812" y="444" />
            </Array>
          </mxGeometry>
        </mxCell>
        <mxCell id="LCZvXdwWNyGgl8HGmZK4-71" value="Amazon OpenSearch" style="text;strokeColor=none;fillColor=none;html=1;align=center;verticalAlign=middle;whiteSpace=wrap;rounded=0;fontSize=16;" vertex="1" parent="1">
          <mxGeometry x="585" y="386" width="48" height="58" as="geometry" />
        </mxCell>
        <mxCell id="LCZvXdwWNyGgl8HGmZK4-72" value="&lt;font style=&quot;font-size: 12px;&quot;&gt;MySQL&lt;/font&gt;" style="text;strokeColor=none;fillColor=none;html=1;align=center;verticalAlign=middle;whiteSpace=wrap;rounded=0;fontSize=16;" vertex="1" parent="1">
          <mxGeometry x="358" y="364" width="60" height="30" as="geometry" />
        </mxCell>
        <mxCell id="LCZvXdwWNyGgl8HGmZK4-73" value="&lt;font style=&quot;font-size: 12px;&quot;&gt;MySQL&lt;/font&gt;" style="text;strokeColor=none;fillColor=none;html=1;align=center;verticalAlign=middle;whiteSpace=wrap;rounded=0;fontSize=16;" vertex="1" parent="1">
          <mxGeometry x="771" y="373" width="60" height="30" as="geometry" />
        </mxCell>
        <mxCell id="LCZvXdwWNyGgl8HGmZK4-74" value="Load Balancer" style="text;strokeColor=none;fillColor=none;html=1;align=center;verticalAlign=middle;whiteSpace=wrap;rounded=0;fontSize=16;" vertex="1" parent="1">
          <mxGeometry x="494" y="-105" width="217" height="30" as="geometry" />
        </mxCell>
        <mxCell id="LCZvXdwWNyGgl8HGmZK4-90" value="Public subnet" style="points=[[0,0],[0.25,0],[0.5,0],[0.75,0],[1,0],[1,0.25],[1,0.5],[1,0.75],[1,1],[0.75,1],[0.5,1],[0.25,1],[0,1],[0,0.75],[0,0.5],[0,0.25]];outlineConnect=0;gradientColor=none;html=1;whiteSpace=wrap;fontSize=12;fontStyle=0;container=1;pointerEvents=0;collapsible=0;recursiveResize=0;shape=mxgraph.aws4.group;grIcon=mxgraph.aws4.group_security_group;grStroke=0;strokeColor=#7AA116;fillColor=#F2F6E8;verticalAlign=top;align=left;spacingLeft=30;fontColor=#248814;dashed=0;" vertex="1" parent="1">
          <mxGeometry x="341" y="-174" width="126" height="110" as="geometry" />
        </mxCell>
        <mxCell id="LCZvXdwWNyGgl8HGmZK4-92" value="Public subnet" style="points=[[0,0],[0.25,0],[0.5,0],[0.75,0],[1,0],[1,0.25],[1,0.5],[1,0.75],[1,1],[0.75,1],[0.5,1],[0.25,1],[0,1],[0,0.75],[0,0.5],[0,0.25]];outlineConnect=0;gradientColor=none;html=1;whiteSpace=wrap;fontSize=12;fontStyle=0;container=1;pointerEvents=0;collapsible=0;recursiveResize=0;shape=mxgraph.aws4.group;grIcon=mxgraph.aws4.group_security_group;grStroke=0;strokeColor=#7AA116;fillColor=#F2F6E8;verticalAlign=top;align=left;spacingLeft=30;fontColor=#248814;dashed=0;" vertex="1" parent="1">
          <mxGeometry x="757" y="-178" width="111" height="110" as="geometry" />
        </mxCell>
        <mxCell id="LCZvXdwWNyGgl8HGmZK4-93" value="Private subnet" style="points=[[0,0],[0.25,0],[0.5,0],[0.75,0],[1,0],[1,0.25],[1,0.5],[1,0.75],[1,1],[0.75,1],[0.5,1],[0.25,1],[0,1],[0,0.75],[0,0.5],[0,0.25]];outlineConnect=0;gradientColor=none;html=1;whiteSpace=wrap;fontSize=12;fontStyle=0;container=1;pointerEvents=0;collapsible=0;recursiveResize=0;shape=mxgraph.aws4.group;grIcon=mxgraph.aws4.group_security_group;grStroke=0;strokeColor=#00A4A6;fillColor=#E6F6F7;verticalAlign=top;align=left;spacingLeft=30;fontColor=#147EBA;dashed=0;" vertex="1" parent="1">
          <mxGeometry x="334" y="76" width="134" height="153" as="geometry" />
        </mxCell>
        <mxCell id="LCZvXdwWNyGgl8HGmZK4-37" value="" style="sketch=0;points=[[0,0,0],[0.25,0,0],[0.5,0,0],[0.75,0,0],[1,0,0],[0,1,0],[0.25,1,0],[0.5,1,0],[0.75,1,0],[1,1,0],[0,0.25,0],[0,0.5,0],[0,0.75,0],[1,0.25,0],[1,0.5,0],[1,0.75,0]];outlineConnect=0;fontColor=#232F3E;fillColor=#ED7100;strokeColor=#ffffff;dashed=0;verticalLabelPosition=bottom;verticalAlign=top;align=center;html=1;fontSize=12;fontStyle=0;aspect=fixed;shape=mxgraph.aws4.resourceIcon;resIcon=mxgraph.aws4.ec2;" vertex="1" parent="LCZvXdwWNyGgl8HGmZK4-93">
          <mxGeometry x="15" y="52" width="78" height="78" as="geometry" />
        </mxCell>
        <mxCell id="LCZvXdwWNyGgl8HGmZK4-64" value="EKS Worker" style="text;strokeColor=none;fillColor=none;html=1;align=center;verticalAlign=middle;whiteSpace=wrap;rounded=0;fontSize=16;" vertex="1" parent="1">
          <mxGeometry x="341" y="226" width="60" height="66" as="geometry" />
        </mxCell>
        <mxCell id="LCZvXdwWNyGgl8HGmZK4-103" value="" style="sketch=0;outlineConnect=0;fontColor=#232F3E;gradientColor=none;fillColor=#8C4FFF;strokeColor=none;dashed=0;verticalLabelPosition=bottom;verticalAlign=top;align=center;html=1;fontSize=12;fontStyle=0;aspect=fixed;pointerEvents=1;shape=mxgraph.aws4.internet_gateway;" vertex="1" parent="1">
          <mxGeometry x="572" y="-246" width="78" height="78" as="geometry" />
        </mxCell>
        <mxCell id="LCZvXdwWNyGgl8HGmZK4-104" value="Internet Gateway" style="text;strokeColor=none;fillColor=none;html=1;align=center;verticalAlign=middle;whiteSpace=wrap;rounded=0;fontSize=16;" vertex="1" parent="1">
          <mxGeometry x="507.5" y="-276" width="217" height="30" as="geometry" />
        </mxCell>
        <mxCell id="LCZvXdwWNyGgl8HGmZK4-89" value="VPC" style="points=[[0,0],[0.25,0],[0.5,0],[0.75,0],[1,0],[1,0.25],[1,0.5],[1,0.75],[1,1],[0.75,1],[0.5,1],[0.25,1],[0,1],[0,0.75],[0,0.5],[0,0.25]];outlineConnect=0;gradientColor=none;html=1;whiteSpace=wrap;fontSize=12;fontStyle=0;container=0;pointerEvents=0;collapsible=0;recursiveResize=0;shape=mxgraph.aws4.group;grIcon=mxgraph.aws4.group_vpc2;strokeColor=#8C4FFF;fillColor=none;verticalAlign=top;align=left;spacingLeft=30;fontColor=#AAB7B8;dashed=0;" vertex="1" parent="1">
          <mxGeometry x="262" y="-218.5" width="631" height="739.5" as="geometry" />
        </mxCell>
        <mxCell id="LCZvXdwWNyGgl8HGmZK4-105" value="" style="sketch=0;outlineConnect=0;fontColor=#232F3E;gradientColor=none;fillColor=#8C4FFF;strokeColor=none;dashed=0;verticalLabelPosition=bottom;verticalAlign=top;align=center;html=1;fontSize=12;fontStyle=0;aspect=fixed;pointerEvents=1;shape=mxgraph.aws4.nat_gateway;" vertex="1" parent="1">
          <mxGeometry x="369" y="-144" width="55" height="55" as="geometry" />
        </mxCell>
        <mxCell id="LCZvXdwWNyGgl8HGmZK4-106" value="" style="sketch=0;outlineConnect=0;fontColor=#232F3E;gradientColor=none;fillColor=#8C4FFF;strokeColor=none;dashed=0;verticalLabelPosition=bottom;verticalAlign=top;align=center;html=1;fontSize=12;fontStyle=0;aspect=fixed;pointerEvents=1;shape=mxgraph.aws4.nat_gateway;" vertex="1" parent="1">
          <mxGeometry x="786.5" y="-142" width="55" height="55" as="geometry" />
        </mxCell>
        <mxCell id="LCZvXdwWNyGgl8HGmZK4-107" value="NAT Gateway" style="text;strokeColor=none;fillColor=none;html=1;align=center;verticalAlign=middle;whiteSpace=wrap;rounded=0;fontSize=16;" vertex="1" parent="1">
          <mxGeometry x="295.5" y="-84" width="217" height="9" as="geometry" />
        </mxCell>
        <mxCell id="LCZvXdwWNyGgl8HGmZK4-108" value="NAT Gateway" style="text;strokeColor=none;fillColor=none;html=1;align=center;verticalAlign=middle;whiteSpace=wrap;rounded=0;fontSize=16;" vertex="1" parent="1">
          <mxGeometry x="713" y="-84" width="217" height="9" as="geometry" />
        </mxCell>
      </root>
    </mxGraphModel>
  </diagram>
</mxfile>
